# xmcd
#
# Track frame offsets:
# 150
# 16516
# 33539
# 56250
# 74988
# 91495
# 108178
# 131381
# 156547
# 182905
# 199312
# 213670
#
# Disc length: 3099 seconds
#
#
# Revision: 0
# Processed by: cddbd v1.5.1PL2 Copyright (c) Steve Scherf et al.
# Submitted via: FreeRIP 2.945 
#
DISCID=ae0c190c
DTITLE=Ruben V - Labor of Shame
DYEAR=2006
DGENRE=Rock
TTITLE0=When I Hear You Smiling
TTITLE1=Alone Before
TTITLE2=Stand Next To You
TTITLE3=Stay Awhile
TTITLE4=She's Trouble
TTITLE5=Unremarkable
TTITLE6=Labor of Shame
TTITLE7=Todos Reunidos
TTITLE8=You Win
TTITLE9=Something So Sweet
TTITLE10=I Wanna
TTITLE11=Welcome to the Blues
EXTD=
EXTT0=
EXTT1=
EXTT2=
EXTT3=
EXTT4=
EXTT5=
EXTT6=
EXTT7=
EXTT8=
EXTT9=
EXTT10=
EXTT11=
PLAYORDER=
